<svg version="1.2" xmlns="http://www.w3.org/2000/svg" viewBox="0 0 500 500" width="500" height="500">
	<title>BBC Icon</title>
	<style>
		.s0 { fill: #000000 } 
		.s1 { fill: #ffffff } 
		.s2 { fill: none;stroke: #ffffff;stroke-width: 10 } 
		.s3 { fill: #ab2b63 } 
		.s4 { fill: #c72b17 } 
		.s5 { fill: #ed780d } 
		.s6 { fill: #1a8cc7 } 
	</style>
	<path id="Inner" class="s0" d="m250 495c-135.5 0-245-109.5-245-245 0-135.5 109.5-245 245-245 135.5 0 245 109.5 245 245 0 135.5-109.5 245-245 245z"/>
	<path id="Cross" class="s1" d="m245 5h10v490h-10zm250 240v10h-490v-10zm-245 42c-20.2 0-36.5-16.3-36.5-36.5 0-20.2 16.3-36.5 36.5-36.5 20.2 0 36.5 16.3 36.5 36.5 0 20.2-16.3 36.5-36.5 36.5z"/>
	<path id="Outer" class="s2" d="m250 495c-135.5 0-245-109.5-245-245 0-135.5 109.5-245 245-245 135.5 0 245 109.5 245 245 0 135.5-109.5 245-245 245z"/>
	<path id="Note V" class="s3" d="m113 286c-20.2 0-36.5-16.3-36.5-36.5 0-20.2 16.3-36.5 36.5-36.5 20.2 0 36.5 16.3 36.5 36.5 0 20.2-16.3 36.5-36.5 36.5z"/>
	<path id="Note C" class="s4" d="m250 424c-20.2 0-36.5-16.3-36.5-36.5 0-20.2 16.3-36.5 36.5-36.5 20.2 0 36.5 16.3 36.5 36.5 0 20.2-16.3 36.5-36.5 36.5z"/>
	<path id="Note X" class="s5" d="m388 287c-20.2 0-36.5-16.3-36.5-36.5 0-20.2 16.3-36.5 36.5-36.5 20.2 0 36.5 16.3 36.5 36.5 0 20.2-16.3 36.5-36.5 36.5z"/>
	<path id="Note Z" class="s6" d="m250 149c-20.2 0-36.5-16.3-36.5-36.5 0-20.2 16.3-36.5 36.5-36.5 20.2 0 36.5 16.3 36.5 36.5 0 20.2-16.3 36.5-36.5 36.5z"/>
</svg>